<?xml version="1.0" encoding="utf-8"?>
<!-- Generator: Adobe Illustrator 21.1.0, SVG Export Plug-In . SVG Version: 6.00 Build 0)  -->
<svg version="1.1" id="Layer_1" xmlns="http://www.w3.org/2000/svg" xmlns:xlink="http://www.w3.org/1999/xlink" x="0px" y="0px"
	 viewBox="0 0 525 324.5" style="enable-background:new 0 0 525 324.5;" xml:space="preserve">
<style type="text/css">
	.st0{fill:#FFFFFF;}
	.st1{clip-path:url(#SVGID_2_);fill:none;stroke:#000000;stroke-width:1.07;stroke-linejoin:round;stroke-miterlimit:10;}
	
		.st2{clip-path:url(#SVGID_4_);stroke:#000000;stroke-width:1.42;stroke-linecap:round;stroke-linejoin:round;stroke-miterlimit:10;}
	.st3{clip-path:url(#SVGID_6_);}
	.st4{fill:none;}
	.st5{enable-background:new    ;}
	.st6{fill:#999999;}
	.st7{font-family:'Courier';}
	.st8{font-size:8.8px;}
	.st9{letter-spacing:1;}
	.st10{font-family:'Helvetica-Bold';}
	.st11{font-size:12px;}
	.st12{fill:none;stroke:#000000;stroke-miterlimit:10;}
</style>
<rect y="0" class="st0" width="525" height="324.5"/>
<g>
	<defs>
		<rect id="SVGID_1_" x="53.5" y="0" width="471.5" height="321.7"/>
	</defs>
	<clipPath id="SVGID_2_">
		<use xlink:href="#SVGID_1_"  style="overflow:visible;"/>
	</clipPath>
	<line class="st1" x1="75" y1="160.9" x2="503.6" y2="160.9"/>
</g>
<g>
	<defs>
		<rect id="SVGID_3_" x="53.5" y="0" width="471.5" height="321.7"/>
	</defs>
	<clipPath id="SVGID_4_">
		<use xlink:href="#SVGID_3_"  style="overflow:visible;"/>
	</clipPath>
	<circle class="st2" cx="262.5" cy="160.9" r="2.8"/>
</g>
<g>
	<defs>
		<rect id="SVGID_5_" y="0" width="525" height="324.5"/>
	</defs>
	<clipPath id="SVGID_6_">
		<use xlink:href="#SVGID_5_"  style="overflow:visible;"/>
	</clipPath>
	<g class="st3">
		<rect y="156.5" class="st4" width="48.6" height="10.5"/>
		<text transform="matrix(1 0 0 1 0 163.4802)" class="st5"><tspan x="0" y="0" class="st6 st7 st8">City</tspan><tspan x="21.1" y="0" class="st6 st7 st8 st9"> </tspan><tspan x="27.5" y="0" class="st6 st7 st8">name</tspan></text>
	</g>
</g>
<text transform="matrix(1 0 0 1 254.8301 85.78)" class="st10 st11">3C</text>
<text transform="matrix(1 0 0 1 408.5 85.78)" class="st10 st11">4C</text>
<text transform="matrix(1 0 0 1 156.5 85.78)" class="st10 st11">2C</text>
<g>
	<g>
		<path class="st12" d="M76,146c3.5-35.1,33.2-62.5,69.2-62.5"/>
		<g>
			<polygon points="75.7,153 80.3,143.3 76.1,145.4 72.2,142.9 			"/>
		</g>
	</g>
</g>
<g>
	<g>
		<path class="st12" d="M433,83.4c36.1,0,65.7,27.4,69.2,62.5"/>
		<g>
			<polygon points="502.6,153 498,143.3 502.2,145.4 506.1,142.9 			"/>
		</g>
	</g>
</g>
<g>
	<g>
		<line class="st12" x1="262.5" y1="143.9" x2="262.5" y2="89.4"/>
		<g>
			<polygon points="262.5,151 266.6,141 262.5,143.4 258.4,141 			"/>
		</g>
	</g>
</g>
<text transform="matrix(1 0 0 1 181.1275 65.9468)" class="st10 st11">Thousands affected by sea level rise of</text>
</svg>
