<?xml version="1.0" encoding="utf-8"?>
<!-- Generator: Adobe Illustrator 21.1.0, SVG Export Plug-In . SVG Version: 6.00 Build 0)  -->
<svg version="1.1" id="Layer_1" xmlns="http://www.w3.org/2000/svg" xmlns:xlink="http://www.w3.org/1999/xlink" x="0px" y="0px"
	 viewBox="0 0 525 324.5" style="enable-background:new 0 0 525 324.5;" xml:space="preserve">
<style type="text/css">
	.st0{fill:#FFFFFF;}
	.st1{clip-path:url(#SVGID_2_);fill:none;stroke:#EBEBEB;stroke-width:0.53;stroke-linejoin:round;stroke-miterlimit:10;}
	.st2{clip-path:url(#SVGID_4_);fill:none;stroke:#EBEBEB;stroke-width:0.53;stroke-linejoin:round;stroke-miterlimit:10;}
	.st3{clip-path:url(#SVGID_6_);fill:none;stroke:#EBEBEB;stroke-width:0.53;stroke-linejoin:round;stroke-miterlimit:10;}
	.st4{clip-path:url(#SVGID_8_);fill:none;stroke:#EBEBEB;stroke-width:0.53;stroke-linejoin:round;stroke-miterlimit:10;}
	.st5{clip-path:url(#SVGID_10_);fill:none;stroke:#EBEBEB;stroke-width:0.53;stroke-linejoin:round;stroke-miterlimit:10;}
	.st6{clip-path:url(#SVGID_12_);fill:none;stroke:#EBEBEB;stroke-width:0.53;stroke-linejoin:round;stroke-miterlimit:10;}
	.st7{clip-path:url(#SVGID_14_);fill:none;stroke:#EBEBEB;stroke-width:0.53;stroke-linejoin:round;stroke-miterlimit:10;}
	.st8{clip-path:url(#SVGID_16_);fill:none;stroke:#EBEBEB;stroke-width:0.53;stroke-linejoin:round;stroke-miterlimit:10;}
	.st9{clip-path:url(#SVGID_18_);fill:none;stroke:#EBEBEB;stroke-width:1.07;stroke-linejoin:round;stroke-miterlimit:10;}
	.st10{clip-path:url(#SVGID_20_);fill:none;stroke:#EBEBEB;stroke-width:1.07;stroke-linejoin:round;stroke-miterlimit:10;}
	.st11{clip-path:url(#SVGID_22_);fill:none;stroke:#EBEBEB;stroke-width:1.07;stroke-linejoin:round;stroke-miterlimit:10;}
	.st12{clip-path:url(#SVGID_24_);fill:none;stroke:#EBEBEB;stroke-width:1.07;stroke-linejoin:round;stroke-miterlimit:10;}
	.st13{clip-path:url(#SVGID_26_);fill:none;stroke:#EBEBEB;stroke-width:1.07;stroke-linejoin:round;stroke-miterlimit:10;}
	.st14{clip-path:url(#SVGID_28_);fill:none;stroke:#EBEBEB;stroke-width:1.07;stroke-linejoin:round;stroke-miterlimit:10;}
	.st15{clip-path:url(#SVGID_30_);fill:none;stroke:#EBEBEB;stroke-width:1.07;stroke-linejoin:round;stroke-miterlimit:10;}
	.st16{clip-path:url(#SVGID_32_);fill:none;stroke:#EBEBEB;stroke-width:1.07;stroke-linejoin:round;stroke-miterlimit:10;}
	.st17{clip-path:url(#SVGID_34_);fill:none;stroke:#EBEBEB;stroke-width:1.07;stroke-linejoin:round;stroke-miterlimit:10;}
	.st18{clip-path:url(#SVGID_36_);fill:none;stroke:#EBEBEB;stroke-width:1.07;stroke-linejoin:round;stroke-miterlimit:10;}
	.st19{clip-path:url(#SVGID_38_);fill:none;stroke:#EBEBEB;stroke-width:1.07;stroke-linejoin:round;stroke-miterlimit:10;}
	.st20{clip-path:url(#SVGID_40_);fill:none;stroke:#EBEBEB;stroke-width:1.07;stroke-linejoin:round;stroke-miterlimit:10;}
	.st21{clip-path:url(#SVGID_42_);fill:none;stroke:#EBEBEB;stroke-width:1.07;stroke-linejoin:round;stroke-miterlimit:10;}
	.st22{clip-path:url(#SVGID_44_);fill:none;stroke:#EBEBEB;stroke-width:1.07;stroke-linejoin:round;stroke-miterlimit:10;}
	.st23{clip-path:url(#SVGID_46_);fill:none;stroke:#EBEBEB;stroke-width:1.07;stroke-linejoin:round;stroke-miterlimit:10;}
	.st24{clip-path:url(#SVGID_48_);fill:none;stroke:#EBEBEB;stroke-width:1.07;stroke-linejoin:round;stroke-miterlimit:10;}
	.st25{clip-path:url(#SVGID_50_);fill:none;stroke:#EBEBEB;stroke-width:1.07;stroke-linejoin:round;stroke-miterlimit:10;}
	.st26{clip-path:url(#SVGID_52_);fill:none;stroke:#EBEBEB;stroke-width:1.07;stroke-linejoin:round;stroke-miterlimit:10;}
	.st27{clip-path:url(#SVGID_54_);fill:none;stroke:#000000;stroke-width:1.07;stroke-linejoin:round;stroke-miterlimit:10;}
	.st28{clip-path:url(#SVGID_56_);fill:none;stroke:#000000;stroke-width:1.07;stroke-linejoin:round;stroke-miterlimit:10;}
	.st29{clip-path:url(#SVGID_58_);fill:none;stroke:#000000;stroke-width:1.07;stroke-linejoin:round;stroke-miterlimit:10;}
	.st30{clip-path:url(#SVGID_60_);fill:none;stroke:#000000;stroke-width:1.07;stroke-linejoin:round;stroke-miterlimit:10;}
	.st31{clip-path:url(#SVGID_62_);fill:none;stroke:#000000;stroke-width:1.07;stroke-linejoin:round;stroke-miterlimit:10;}
	.st32{clip-path:url(#SVGID_64_);fill:none;stroke:#000000;stroke-width:1.07;stroke-linejoin:round;stroke-miterlimit:10;}
	.st33{clip-path:url(#SVGID_66_);fill:none;stroke:#000000;stroke-width:1.07;stroke-linejoin:round;stroke-miterlimit:10;}
	.st34{clip-path:url(#SVGID_68_);fill:none;stroke:#000000;stroke-width:1.07;stroke-linejoin:round;stroke-miterlimit:10;}
	.st35{clip-path:url(#SVGID_70_);fill:none;stroke:#000000;stroke-width:1.07;stroke-linejoin:round;stroke-miterlimit:10;}
	.st36{clip-path:url(#SVGID_72_);fill:none;stroke:#000000;stroke-width:1.07;stroke-linejoin:round;stroke-miterlimit:10;}
	
		.st37{clip-path:url(#SVGID_74_);stroke:#000000;stroke-width:1.42;stroke-linecap:round;stroke-linejoin:round;stroke-miterlimit:10;}
	
		.st38{clip-path:url(#SVGID_76_);stroke:#000000;stroke-width:1.42;stroke-linecap:round;stroke-linejoin:round;stroke-miterlimit:10;}
	
		.st39{clip-path:url(#SVGID_78_);stroke:#000000;stroke-width:1.42;stroke-linecap:round;stroke-linejoin:round;stroke-miterlimit:10;}
	
		.st40{clip-path:url(#SVGID_80_);stroke:#000000;stroke-width:1.42;stroke-linecap:round;stroke-linejoin:round;stroke-miterlimit:10;}
	
		.st41{clip-path:url(#SVGID_82_);stroke:#000000;stroke-width:1.42;stroke-linecap:round;stroke-linejoin:round;stroke-miterlimit:10;}
	
		.st42{clip-path:url(#SVGID_84_);stroke:#000000;stroke-width:1.42;stroke-linecap:round;stroke-linejoin:round;stroke-miterlimit:10;}
	
		.st43{clip-path:url(#SVGID_86_);stroke:#000000;stroke-width:1.42;stroke-linecap:round;stroke-linejoin:round;stroke-miterlimit:10;}
	
		.st44{clip-path:url(#SVGID_88_);stroke:#000000;stroke-width:1.42;stroke-linecap:round;stroke-linejoin:round;stroke-miterlimit:10;}
	
		.st45{clip-path:url(#SVGID_90_);stroke:#000000;stroke-width:1.42;stroke-linecap:round;stroke-linejoin:round;stroke-miterlimit:10;}
	
		.st46{clip-path:url(#SVGID_92_);stroke:#000000;stroke-width:1.42;stroke-linecap:round;stroke-linejoin:round;stroke-miterlimit:10;}
	.st47{clip-path:url(#SVGID_94_);}
	.st48{fill:none;}
	.st49{fill:#999999;}
	.st50{font-family:'Courier';}
	.st51{font-size:8.8px;}
	.st52{clip-path:url(#SVGID_96_);}
	.st53{enable-background:new    ;}
	.st54{clip-path:url(#SVGID_98_);}
	.st55{clip-path:url(#SVGID_100_);}
	.st56{clip-path:url(#SVGID_102_);}
	.st57{clip-path:url(#SVGID_104_);}
	.st58{clip-path:url(#SVGID_106_);}
	.st59{clip-path:url(#SVGID_108_);}
	.st60{clip-path:url(#SVGID_110_);}
	.st61{clip-path:url(#SVGID_112_);}
	.st62{clip-path:url(#SVGID_114_);}
	.st63{clip-path:url(#SVGID_116_);}
	.st64{clip-path:url(#SVGID_118_);}
	.st65{clip-path:url(#SVGID_120_);}
	.st66{clip-path:url(#SVGID_122_);}
	.st67{clip-path:url(#SVGID_124_);}
	.st68{clip-path:url(#SVGID_126_);}
	.st69{clip-path:url(#SVGID_128_);}
	.st70{clip-path:url(#SVGID_130_);}
	.st71{font-family:'Helvetica-Bold';}
	.st72{clip-path:url(#SVGID_132_);}
	.st73{font-family:'Helvetica';}
	.st74{font-size:11px;}
	.st75{clip-path:url(#SVGID_134_);}
	.st76{font-size:13.2px;}
	.st77{clip-path:url(#SVGID_136_);}
	.st78{clip-path:url(#SVGID_138_);}
	.st79{fill:none;stroke:#FFFFFF;}
</style>
<rect y="0" class="st0" width="525" height="324.5"/>
<g>
	<defs>
		<rect id="SVGID_1_" x="64.4" y="71.7" width="460.6" height="226.7"/>
	</defs>
	<clipPath id="SVGID_2_">
		<use xlink:href="#SVGID_1_"  style="overflow:visible;"/>
	</clipPath>
	<line class="st1" x1="111.2" y1="298.3" x2="111.2" y2="71.7"/>
</g>
<g>
	<defs>
		<rect id="SVGID_3_" x="64.4" y="71.7" width="460.6" height="226.7"/>
	</defs>
	<clipPath id="SVGID_4_">
		<use xlink:href="#SVGID_3_"  style="overflow:visible;"/>
	</clipPath>
	<line class="st2" x1="167.7" y1="298.3" x2="167.7" y2="71.7"/>
</g>
<g>
	<defs>
		<rect id="SVGID_5_" x="64.4" y="71.7" width="460.6" height="226.7"/>
	</defs>
	<clipPath id="SVGID_6_">
		<use xlink:href="#SVGID_5_"  style="overflow:visible;"/>
	</clipPath>
	<line class="st3" x1="224.2" y1="298.3" x2="224.2" y2="71.7"/>
</g>
<g>
	<defs>
		<rect id="SVGID_7_" x="64.4" y="71.7" width="460.6" height="226.7"/>
	</defs>
	<clipPath id="SVGID_8_">
		<use xlink:href="#SVGID_7_"  style="overflow:visible;"/>
	</clipPath>
	<line class="st4" x1="280.7" y1="298.3" x2="280.7" y2="71.7"/>
</g>
<g>
	<defs>
		<rect id="SVGID_9_" x="64.4" y="71.7" width="460.6" height="226.7"/>
	</defs>
	<clipPath id="SVGID_10_">
		<use xlink:href="#SVGID_9_"  style="overflow:visible;"/>
	</clipPath>
	<line class="st5" x1="337.1" y1="298.3" x2="337.1" y2="71.7"/>
</g>
<g>
	<defs>
		<rect id="SVGID_11_" x="64.4" y="71.7" width="460.6" height="226.7"/>
	</defs>
	<clipPath id="SVGID_12_">
		<use xlink:href="#SVGID_11_"  style="overflow:visible;"/>
	</clipPath>
	<line class="st6" x1="393.6" y1="298.3" x2="393.6" y2="71.7"/>
</g>
<g>
	<defs>
		<rect id="SVGID_13_" x="64.4" y="71.7" width="460.6" height="226.7"/>
	</defs>
	<clipPath id="SVGID_14_">
		<use xlink:href="#SVGID_13_"  style="overflow:visible;"/>
	</clipPath>
	<line class="st7" x1="450.1" y1="298.3" x2="450.1" y2="71.7"/>
</g>
<g>
	<defs>
		<rect id="SVGID_15_" x="64.4" y="71.7" width="460.6" height="226.7"/>
	</defs>
	<clipPath id="SVGID_16_">
		<use xlink:href="#SVGID_15_"  style="overflow:visible;"/>
	</clipPath>
	<line class="st8" x1="506.6" y1="298.3" x2="506.6" y2="71.7"/>
</g>
<g>
	<defs>
		<rect id="SVGID_17_" x="64.4" y="71.7" width="460.6" height="226.7"/>
	</defs>
	<clipPath id="SVGID_18_">
		<use xlink:href="#SVGID_17_"  style="overflow:visible;"/>
	</clipPath>
	<line class="st9" x1="64.4" y1="285" x2="525" y2="285"/>
</g>
<g>
	<defs>
		<rect id="SVGID_19_" x="64.4" y="71.7" width="460.6" height="226.7"/>
	</defs>
	<clipPath id="SVGID_20_">
		<use xlink:href="#SVGID_19_"  style="overflow:visible;"/>
	</clipPath>
	<line class="st10" x1="64.4" y1="262.8" x2="525" y2="262.8"/>
</g>
<g>
	<defs>
		<rect id="SVGID_21_" x="64.4" y="71.7" width="460.6" height="226.7"/>
	</defs>
	<clipPath id="SVGID_22_">
		<use xlink:href="#SVGID_21_"  style="overflow:visible;"/>
	</clipPath>
	<line class="st11" x1="64.4" y1="240.6" x2="525" y2="240.6"/>
</g>
<g>
	<defs>
		<rect id="SVGID_23_" x="64.4" y="71.7" width="460.6" height="226.7"/>
	</defs>
	<clipPath id="SVGID_24_">
		<use xlink:href="#SVGID_23_"  style="overflow:visible;"/>
	</clipPath>
	<line class="st12" x1="64.4" y1="218.3" x2="525" y2="218.3"/>
</g>
<g>
	<defs>
		<rect id="SVGID_25_" x="64.4" y="71.7" width="460.6" height="226.7"/>
	</defs>
	<clipPath id="SVGID_26_">
		<use xlink:href="#SVGID_25_"  style="overflow:visible;"/>
	</clipPath>
	<line class="st13" x1="64.4" y1="196.1" x2="525" y2="196.1"/>
</g>
<g>
	<defs>
		<rect id="SVGID_27_" x="64.4" y="71.7" width="460.6" height="226.7"/>
	</defs>
	<clipPath id="SVGID_28_">
		<use xlink:href="#SVGID_27_"  style="overflow:visible;"/>
	</clipPath>
	<line class="st14" x1="64.4" y1="173.9" x2="525" y2="173.9"/>
</g>
<g>
	<defs>
		<rect id="SVGID_29_" x="64.4" y="71.7" width="460.6" height="226.7"/>
	</defs>
	<clipPath id="SVGID_30_">
		<use xlink:href="#SVGID_29_"  style="overflow:visible;"/>
	</clipPath>
	<line class="st15" x1="64.4" y1="151.7" x2="525" y2="151.7"/>
</g>
<g>
	<defs>
		<rect id="SVGID_31_" x="64.4" y="71.7" width="460.6" height="226.7"/>
	</defs>
	<clipPath id="SVGID_32_">
		<use xlink:href="#SVGID_31_"  style="overflow:visible;"/>
	</clipPath>
	<line class="st16" x1="64.4" y1="129.5" x2="525" y2="129.5"/>
</g>
<g>
	<defs>
		<rect id="SVGID_33_" x="64.4" y="71.7" width="460.6" height="226.7"/>
	</defs>
	<clipPath id="SVGID_34_">
		<use xlink:href="#SVGID_33_"  style="overflow:visible;"/>
	</clipPath>
	<line class="st17" x1="64.4" y1="107.2" x2="525" y2="107.2"/>
</g>
<g>
	<defs>
		<rect id="SVGID_35_" x="64.4" y="71.7" width="460.6" height="226.7"/>
	</defs>
	<clipPath id="SVGID_36_">
		<use xlink:href="#SVGID_35_"  style="overflow:visible;"/>
	</clipPath>
	<line class="st18" x1="64.4" y1="85" x2="525" y2="85"/>
</g>
<g>
	<defs>
		<rect id="SVGID_37_" x="64.4" y="71.7" width="460.6" height="226.7"/>
	</defs>
	<clipPath id="SVGID_38_">
		<use xlink:href="#SVGID_37_"  style="overflow:visible;"/>
	</clipPath>
	<line class="st19" x1="82.9" y1="298.3" x2="82.9" y2="71.7"/>
</g>
<g>
	<defs>
		<rect id="SVGID_39_" x="64.4" y="71.7" width="460.6" height="226.7"/>
	</defs>
	<clipPath id="SVGID_40_">
		<use xlink:href="#SVGID_39_"  style="overflow:visible;"/>
	</clipPath>
	<line class="st20" x1="139.4" y1="298.3" x2="139.4" y2="71.7"/>
</g>
<g>
	<defs>
		<rect id="SVGID_41_" x="64.4" y="71.7" width="460.6" height="226.7"/>
	</defs>
	<clipPath id="SVGID_42_">
		<use xlink:href="#SVGID_41_"  style="overflow:visible;"/>
	</clipPath>
	<line class="st21" x1="195.9" y1="298.3" x2="195.9" y2="71.7"/>
</g>
<g>
	<defs>
		<rect id="SVGID_43_" x="64.4" y="71.7" width="460.6" height="226.7"/>
	</defs>
	<clipPath id="SVGID_44_">
		<use xlink:href="#SVGID_43_"  style="overflow:visible;"/>
	</clipPath>
	<line class="st22" x1="252.4" y1="298.3" x2="252.4" y2="71.7"/>
</g>
<g>
	<defs>
		<rect id="SVGID_45_" x="64.4" y="71.7" width="460.6" height="226.7"/>
	</defs>
	<clipPath id="SVGID_46_">
		<use xlink:href="#SVGID_45_"  style="overflow:visible;"/>
	</clipPath>
	<line class="st23" x1="308.9" y1="298.3" x2="308.9" y2="71.7"/>
</g>
<g>
	<defs>
		<rect id="SVGID_47_" x="64.4" y="71.7" width="460.6" height="226.7"/>
	</defs>
	<clipPath id="SVGID_48_">
		<use xlink:href="#SVGID_47_"  style="overflow:visible;"/>
	</clipPath>
	<line class="st24" x1="365.4" y1="298.3" x2="365.4" y2="71.7"/>
</g>
<g>
	<defs>
		<rect id="SVGID_49_" x="64.4" y="71.7" width="460.6" height="226.7"/>
	</defs>
	<clipPath id="SVGID_50_">
		<use xlink:href="#SVGID_49_"  style="overflow:visible;"/>
	</clipPath>
	<line class="st25" x1="421.9" y1="298.3" x2="421.9" y2="71.7"/>
</g>
<g>
	<defs>
		<rect id="SVGID_51_" x="64.4" y="71.7" width="460.6" height="226.7"/>
	</defs>
	<clipPath id="SVGID_52_">
		<use xlink:href="#SVGID_51_"  style="overflow:visible;"/>
	</clipPath>
	<line class="st26" x1="478.4" y1="298.3" x2="478.4" y2="71.7"/>
</g>
<g>
	<defs>
		<rect id="SVGID_53_" x="64.4" y="71.7" width="460.6" height="226.7"/>
	</defs>
	<clipPath id="SVGID_54_">
		<use xlink:href="#SVGID_53_"  style="overflow:visible;"/>
	</clipPath>
	<line class="st27" x1="317.6" y1="85" x2="504.1" y2="85"/>
</g>
<g>
	<defs>
		<rect id="SVGID_55_" x="64.4" y="71.7" width="460.6" height="226.7"/>
	</defs>
	<clipPath id="SVGID_56_">
		<use xlink:href="#SVGID_55_"  style="overflow:visible;"/>
	</clipPath>
	<line class="st28" x1="319.3" y1="107.2" x2="431.6" y2="107.2"/>
</g>
<g>
	<defs>
		<rect id="SVGID_57_" x="64.4" y="71.7" width="460.6" height="226.7"/>
	</defs>
	<clipPath id="SVGID_58_">
		<use xlink:href="#SVGID_57_"  style="overflow:visible;"/>
	</clipPath>
	<line class="st29" x1="203.9" y1="129.5" x2="274.3" y2="129.5"/>
</g>
<g>
	<defs>
		<rect id="SVGID_59_" x="64.4" y="71.7" width="460.6" height="226.7"/>
	</defs>
	<clipPath id="SVGID_60_">
		<use xlink:href="#SVGID_59_"  style="overflow:visible;"/>
	</clipPath>
	<line class="st30" x1="111.8" y1="151.7" x2="137.5" y2="151.7"/>
</g>
<g>
	<defs>
		<rect id="SVGID_61_" x="64.4" y="71.7" width="460.6" height="226.7"/>
	</defs>
	<clipPath id="SVGID_62_">
		<use xlink:href="#SVGID_61_"  style="overflow:visible;"/>
	</clipPath>
	<line class="st31" x1="105.1" y1="173.9" x2="136.3" y2="173.9"/>
</g>
<g>
	<defs>
		<rect id="SVGID_63_" x="64.4" y="71.7" width="460.6" height="226.7"/>
	</defs>
	<clipPath id="SVGID_64_">
		<use xlink:href="#SVGID_63_"  style="overflow:visible;"/>
	</clipPath>
	<line class="st32" x1="110.6" y1="196.1" x2="124.8" y2="196.1"/>
</g>
<g>
	<defs>
		<rect id="SVGID_65_" x="64.4" y="71.7" width="460.6" height="226.7"/>
	</defs>
	<clipPath id="SVGID_66_">
		<use xlink:href="#SVGID_65_"  style="overflow:visible;"/>
	</clipPath>
	<line class="st33" x1="102.4" y1="218.3" x2="115.6" y2="218.3"/>
</g>
<g>
	<defs>
		<rect id="SVGID_67_" x="64.4" y="71.7" width="460.6" height="226.7"/>
	</defs>
	<clipPath id="SVGID_68_">
		<use xlink:href="#SVGID_67_"  style="overflow:visible;"/>
	</clipPath>
	<line class="st34" x1="95.9" y1="240.6" x2="104.3" y2="240.6"/>
</g>
<g>
	<defs>
		<rect id="SVGID_69_" x="64.4" y="71.7" width="460.6" height="226.7"/>
	</defs>
	<clipPath id="SVGID_70_">
		<use xlink:href="#SVGID_69_"  style="overflow:visible;"/>
	</clipPath>
	<line class="st35" x1="91.2" y1="262.8" x2="102.2" y2="262.8"/>
</g>
<g>
	<defs>
		<rect id="SVGID_71_" x="64.4" y="71.7" width="460.6" height="226.7"/>
	</defs>
	<clipPath id="SVGID_72_">
		<use xlink:href="#SVGID_71_"  style="overflow:visible;"/>
	</clipPath>
	<line class="st36" x1="85.4" y1="285" x2="100.6" y2="285"/>
</g>
<g>
	<defs>
		<rect id="SVGID_73_" x="64.4" y="71.7" width="460.6" height="226.7"/>
	</defs>
	<clipPath id="SVGID_74_">
		<use xlink:href="#SVGID_73_"  style="overflow:visible;"/>
	</clipPath>
	<circle class="st37" cx="407.7" cy="85" r="2.8"/>
</g>
<g>
	<defs>
		<rect id="SVGID_75_" x="64.4" y="71.7" width="460.6" height="226.7"/>
	</defs>
	<clipPath id="SVGID_76_">
		<use xlink:href="#SVGID_75_"  style="overflow:visible;"/>
	</clipPath>
	<circle class="st38" cx="378.3" cy="107.2" r="2.8"/>
</g>
<g>
	<defs>
		<rect id="SVGID_77_" x="64.4" y="71.7" width="460.6" height="226.7"/>
	</defs>
	<clipPath id="SVGID_78_">
		<use xlink:href="#SVGID_77_"  style="overflow:visible;"/>
	</clipPath>
	<circle class="st39" cx="232.9" cy="129.5" r="2.8"/>
</g>
<g>
	<defs>
		<rect id="SVGID_79_" x="64.4" y="71.7" width="460.6" height="226.7"/>
	</defs>
	<clipPath id="SVGID_80_">
		<use xlink:href="#SVGID_79_"  style="overflow:visible;"/>
	</clipPath>
	<circle class="st40" cx="124.4" cy="151.7" r="2.8"/>
</g>
<g>
	<defs>
		<rect id="SVGID_81_" x="64.4" y="71.7" width="460.6" height="226.7"/>
	</defs>
	<clipPath id="SVGID_82_">
		<use xlink:href="#SVGID_81_"  style="overflow:visible;"/>
	</clipPath>
	<circle class="st41" cx="118.7" cy="173.9" r="2.8"/>
</g>
<g>
	<defs>
		<rect id="SVGID_83_" x="64.4" y="71.7" width="460.6" height="226.7"/>
	</defs>
	<clipPath id="SVGID_84_">
		<use xlink:href="#SVGID_83_"  style="overflow:visible;"/>
	</clipPath>
	<circle class="st42" cx="117.2" cy="196.1" r="2.8"/>
</g>
<g>
	<defs>
		<rect id="SVGID_85_" x="64.4" y="71.7" width="460.6" height="226.7"/>
	</defs>
	<clipPath id="SVGID_86_">
		<use xlink:href="#SVGID_85_"  style="overflow:visible;"/>
	</clipPath>
	<circle class="st43" cx="108.2" cy="218.3" r="2.8"/>
</g>
<g>
	<defs>
		<rect id="SVGID_87_" x="64.4" y="71.7" width="460.6" height="226.7"/>
	</defs>
	<clipPath id="SVGID_88_">
		<use xlink:href="#SVGID_87_"  style="overflow:visible;"/>
	</clipPath>
	<circle class="st44" cx="99.6" cy="240.6" r="2.8"/>
</g>
<g>
	<defs>
		<rect id="SVGID_89_" x="64.4" y="71.7" width="460.6" height="226.7"/>
	</defs>
	<clipPath id="SVGID_90_">
		<use xlink:href="#SVGID_89_"  style="overflow:visible;"/>
	</clipPath>
	<circle class="st45" cx="96.1" cy="262.8" r="2.8"/>
</g>
<g>
	<defs>
		<rect id="SVGID_91_" x="64.4" y="71.7" width="460.6" height="226.7"/>
	</defs>
	<clipPath id="SVGID_92_">
		<use xlink:href="#SVGID_91_"  style="overflow:visible;"/>
	</clipPath>
	<circle class="st46" cx="90.4" cy="285" r="2.8"/>
</g>
<g>
	<defs>
		<rect id="SVGID_93_" y="0" width="525" height="324.5"/>
	</defs>
	<clipPath id="SVGID_94_">
		<use xlink:href="#SVGID_93_"  style="overflow:visible;"/>
	</clipPath>
	<g class="st47">
		<rect x="80.2" y="59.8" class="st48" width="5.4" height="10.5"/>
		<text transform="matrix(1 0 0 1 80.23 66.7605)" class="st49 st50 st51">0</text>
	</g>
</g>
<g>
	<defs>
		<rect id="SVGID_95_" y="0" width="525" height="324.5"/>
	</defs>
	<clipPath id="SVGID_96_">
		<use xlink:href="#SVGID_95_"  style="overflow:visible;"/>
	</clipPath>
	<g class="st52">
		<rect x="128.6" y="59.8" class="st48" width="21.6" height="10.5"/>
		<text transform="matrix(1 0 0 1 128.6299 66.7605)" class="st53"><tspan x="0" y="0" class="st49 st50 st51">100</tspan><tspan x="16.3" y="0" class="st49 st50 st51">0</tspan></text>
	</g>
</g>
<g>
	<defs>
		<rect id="SVGID_97_" y="0" width="525" height="324.5"/>
	</defs>
	<clipPath id="SVGID_98_">
		<use xlink:href="#SVGID_97_"  style="overflow:visible;"/>
	</clipPath>
	<g class="st54">
		<rect x="185.1" y="59.8" class="st48" width="21.6" height="10.5"/>
		<text transform="matrix(1 0 0 1 185.1201 66.7605)" class="st53"><tspan x="0" y="0" class="st49 st50 st51">200</tspan><tspan x="16.3" y="0" class="st49 st50 st51">0</tspan></text>
	</g>
</g>
<g>
	<defs>
		<rect id="SVGID_99_" y="0" width="525" height="324.5"/>
	</defs>
	<clipPath id="SVGID_100_">
		<use xlink:href="#SVGID_99_"  style="overflow:visible;"/>
	</clipPath>
	<g class="st55">
		<rect x="241.6" y="59.8" class="st48" width="21.6" height="10.5"/>
		<text transform="matrix(1 0 0 1 241.6099 66.7605)" class="st53"><tspan x="0" y="0" class="st49 st50 st51">300</tspan><tspan x="16.3" y="0" class="st49 st50 st51">0</tspan></text>
	</g>
</g>
<g>
	<defs>
		<rect id="SVGID_101_" y="0" width="525" height="324.5"/>
	</defs>
	<clipPath id="SVGID_102_">
		<use xlink:href="#SVGID_101_"  style="overflow:visible;"/>
	</clipPath>
	<g class="st56">
		<rect x="298.1" y="59.8" class="st48" width="21.6" height="10.5"/>
		<text transform="matrix(1 0 0 1 298.1001 66.7605)" class="st53"><tspan x="0" y="0" class="st49 st50 st51">400</tspan><tspan x="16.3" y="0" class="st49 st50 st51">0</tspan></text>
	</g>
</g>
<g>
	<defs>
		<rect id="SVGID_103_" y="0" width="525" height="324.5"/>
	</defs>
	<clipPath id="SVGID_104_">
		<use xlink:href="#SVGID_103_"  style="overflow:visible;"/>
	</clipPath>
	<g class="st57">
		<rect x="354.6" y="59.8" class="st48" width="21.6" height="10.5"/>
		<text transform="matrix(1 0 0 1 354.5898 66.7605)" class="st53"><tspan x="0" y="0" class="st49 st50 st51">500</tspan><tspan x="16.3" y="0" class="st49 st50 st51">0</tspan></text>
	</g>
</g>
<g>
	<defs>
		<rect id="SVGID_105_" y="0" width="525" height="324.5"/>
	</defs>
	<clipPath id="SVGID_106_">
		<use xlink:href="#SVGID_105_"  style="overflow:visible;"/>
	</clipPath>
	<g class="st58">
		<rect x="411.1" y="59.8" class="st48" width="21.6" height="10.5"/>
		<text transform="matrix(1 0 0 1 411.0898 66.7605)" class="st53"><tspan x="0" y="0" class="st49 st50 st51">600</tspan><tspan x="16.3" y="0" class="st49 st50 st51">0</tspan></text>
	</g>
</g>
<g>
	<defs>
		<rect id="SVGID_107_" y="0" width="525" height="324.5"/>
	</defs>
	<clipPath id="SVGID_108_">
		<use xlink:href="#SVGID_107_"  style="overflow:visible;"/>
	</clipPath>
	<g class="st59">
		<rect x="467.6" y="59.8" class="st48" width="21.6" height="10.5"/>
		<text transform="matrix(1 0 0 1 467.5801 66.7605)" class="st53"><tspan x="0" y="0" class="st49 st50 st51">700</tspan><tspan x="16.3" y="0" class="st49 st50 st51">0</tspan></text>
	</g>
</g>
<g>
	<defs>
		<rect id="SVGID_109_" y="0" width="525" height="324.5"/>
	</defs>
	<clipPath id="SVGID_110_">
		<use xlink:href="#SVGID_109_"  style="overflow:visible;"/>
	</clipPath>
	<g class="st60">
		<rect x="21.7" y="280.7" class="st48" width="37.8" height="10.5"/>
		<text transform="matrix(1 0 0 1 21.6802 287.6198)" class="st53"><tspan x="0" y="0" class="st49 st50 st51">Sappor</tspan><tspan x="32.5" y="0" class="st49 st50 st51">o</tspan></text>
	</g>
</g>
<g>
	<defs>
		<rect id="SVGID_111_" y="0" width="525" height="324.5"/>
	</defs>
	<clipPath id="SVGID_112_">
		<use xlink:href="#SVGID_111_"  style="overflow:visible;"/>
	</clipPath>
	<g class="st61">
		<rect x="27.1" y="258.5" class="st48" width="32.4" height="10.5"/>
		<text transform="matrix(1 0 0 1 27.0801 265.4001)" class="st53"><tspan x="0" y="0" class="st49 st50 st51">Senda</tspan><tspan x="27.1" y="0" class="st49 st50 st51">i</tspan></text>
	</g>
</g>
<g>
	<defs>
		<rect id="SVGID_113_" y="0" width="525" height="324.5"/>
	</defs>
	<clipPath id="SVGID_114_">
		<use xlink:href="#SVGID_113_"  style="overflow:visible;"/>
	</clipPath>
	<g class="st62">
		<rect x="10.9" y="236.2" class="st48" width="48.6" height="10.5"/>
		<text transform="matrix(1 0 0 1 10.8799 243.1804)" class="st53"><tspan x="0" y="0" class="st49 st50 st51">Hamamats</tspan><tspan x="43.3" y="0" class="st49 st50 st51">u</tspan></text>
	</g>
</g>
<g>
	<defs>
		<rect id="SVGID_115_" y="0" width="525" height="324.5"/>
	</defs>
	<clipPath id="SVGID_116_">
		<use xlink:href="#SVGID_115_"  style="overflow:visible;"/>
	</clipPath>
	<g class="st63">
		<rect x="5.5" y="214" class="st48" width="54" height="10.5"/>
		<text transform="matrix(1 0 0 1 5.48 220.9607)" class="st53"><tspan x="0" y="0" class="st49 st50 st51">Kitakyush</tspan><tspan x="48.7" y="0" class="st49 st50 st51">u</tspan></text>
	</g>
</g>
<g>
	<defs>
		<rect id="SVGID_117_" y="0" width="525" height="324.5"/>
	</defs>
	<clipPath id="SVGID_118_">
		<use xlink:href="#SVGID_117_"  style="overflow:visible;"/>
	</clipPath>
	<g class="st64">
		<rect x="10.9" y="191.8" class="st48" width="48.6" height="10.5"/>
		<text transform="matrix(1 0 0 1 10.8799 198.74)" class="st53"><tspan x="0" y="0" class="st49 st50 st51">Hiroshim</tspan><tspan x="43.3" y="0" class="st49 st50 st51">a</tspan></text>
	</g>
</g>
<g>
	<defs>
		<rect id="SVGID_119_" y="0" width="525" height="324.5"/>
	</defs>
	<clipPath id="SVGID_120_">
		<use xlink:href="#SVGID_119_"  style="overflow:visible;"/>
	</clipPath>
	<g class="st65">
		<rect x="16.3" y="169.6" class="st48" width="43.2" height="10.5"/>
		<text transform="matrix(1 0 0 1 16.2798 176.5202)" class="st53"><tspan x="0" y="0" class="st49 st50 st51">Yokoham</tspan><tspan x="37.9" y="0" class="st49 st50 st51">a</tspan></text>
	</g>
</g>
<g>
	<defs>
		<rect id="SVGID_121_" y="0" width="525" height="324.5"/>
	</defs>
	<clipPath id="SVGID_122_">
		<use xlink:href="#SVGID_121_"  style="overflow:visible;"/>
	</clipPath>
	<g class="st66">
		<rect x="21.7" y="147.4" class="st48" width="37.8" height="10.5"/>
		<text transform="matrix(1 0 0 1 21.6802 154.3005)" class="st53"><tspan x="0" y="0" class="st49 st50 st51">Fukuok</tspan><tspan x="32.5" y="0" class="st49 st50 st51">a</tspan></text>
	</g>
</g>
<g>
	<defs>
		<rect id="SVGID_123_" y="0" width="525" height="324.5"/>
	</defs>
	<clipPath id="SVGID_124_">
		<use xlink:href="#SVGID_123_"  style="overflow:visible;"/>
	</clipPath>
	<g class="st67">
		<rect x="27.1" y="125.1" class="st48" width="32.4" height="10.5"/>
		<text transform="matrix(1 0 0 1 27.0801 132.0798)" class="st53"><tspan x="0" y="0" class="st49 st50 st51">Nagoy</tspan><tspan x="27.1" y="0" class="st49 st50 st51">a</tspan></text>
	</g>
</g>
<g>
	<defs>
		<rect id="SVGID_125_" y="0" width="525" height="324.5"/>
	</defs>
	<clipPath id="SVGID_126_">
		<use xlink:href="#SVGID_125_"  style="overflow:visible;"/>
	</clipPath>
	<g class="st68">
		<rect x="32.5" y="102.9" class="st48" width="27" height="10.5"/>
		<text transform="matrix(1 0 0 1 32.48 109.8601)" class="st53"><tspan x="0" y="0" class="st49 st50 st51">Osak</tspan><tspan x="21.7" y="0" class="st49 st50 st51">a</tspan></text>
	</g>
</g>
<g>
	<defs>
		<rect id="SVGID_127_" y="0" width="525" height="324.5"/>
	</defs>
	<clipPath id="SVGID_128_">
		<use xlink:href="#SVGID_127_"  style="overflow:visible;"/>
	</clipPath>
	<g class="st69">
		<rect x="32.5" y="80.7" class="st48" width="27" height="10.5"/>
		<text transform="matrix(1 0 0 1 32.48 87.6306)" class="st53"><tspan x="0" y="0" class="st49 st50 st51">Toky</tspan><tspan x="21.7" y="0" class="st49 st50 st51">o</tspan></text>
	</g>
</g>
<g>
	<defs>
		<rect id="SVGID_129_" y="0" width="525" height="324.5"/>
	</defs>
	<clipPath id="SVGID_130_">
		<use xlink:href="#SVGID_129_"  style="overflow:visible;"/>
	</clipPath>
	<g class="st70">
		<text transform="matrix(1 0 0 1 212.35 56.06)" class="st71 st51">Population below sea level (thousands)</text>
	</g>
</g>
<g>
	<defs>
		<rect id="SVGID_131_" y="0" width="525" height="324.5"/>
	</defs>
	<clipPath id="SVGID_132_">
		<use xlink:href="#SVGID_131_"  style="overflow:visible;"/>
	</clipPath>
	<g class="st72">
		<rect x="64.4" y="16.7" class="st48" width="213.4" height="14.7"/>
		<text transform="matrix(1 0 0 1 64.4199 26.1394)" class="st49 st73 st74">Population affected by sea level rise, by city</text>
	</g>
</g>
<g>
	<defs>
		<rect id="SVGID_133_" y="0" width="525" height="324.5"/>
	</defs>
	<clipPath id="SVGID_134_">
		<use xlink:href="#SVGID_133_"  style="overflow:visible;"/>
	</clipPath>
	<g class="st75">
		<rect x="64.4" y="-0.6" class="st48" width="390.3" height="17.7"/>
		<text transform="matrix(1 0 0 1 64.4199 10.7693)" class="st71 st76">In Japan, Tokyo, Osaka, and Nagoya will be the worst-affected</text>
	</g>
</g>
<g>
	<defs>
		<rect id="SVGID_135_" y="0" width="525" height="324.5"/>
	</defs>
	<clipPath id="SVGID_136_">
		<use xlink:href="#SVGID_135_"  style="overflow:visible;"/>
	</clipPath>
	<g class="st77">
		<text transform="matrix(1 0 0 1 431.62 313.78)" class="st49 st73 st51">Source: Climate Central</text>
	</g>
</g>
<g>
	<defs>
		<rect id="SVGID_137_" y="0" width="525" height="324.5"/>
	</defs>
	<clipPath id="SVGID_138_">
		<use xlink:href="#SVGID_137_"  style="overflow:visible;"/>
	</clipPath>
	<g class="st78">
		<text transform="matrix(1 0 0 1 403.21 323.28)" class="st49 st73 st51">Based on 2010 population data</text>
	</g>
</g>
<g>
	<text transform="matrix(1 0 0 1 304.833 83.03)" class="st79 st71 st51">2C</text>
	<text transform="matrix(1 0 0 1 304.833 83.03)" class="st71 st51">2C</text>
</g>
<g>
	<text transform="matrix(1 0 0 1 401.833 78.28)" class="st79 st71 st51">3C</text>
	<text transform="matrix(1 0 0 1 401.833 78.28)" class="st71 st51">3C</text>
</g>
<g>
	<text transform="matrix(1 0 0 1 507.833 83.28)" class="st79 st71 st51">4C</text>
	<text transform="matrix(1 0 0 1 507.833 83.28)" class="st71 st51">4C</text>
</g>
</svg>
